<svg version="1" xmlns="http://www.w3.org/2000/svg" width="800" height="800" viewBox="0 0 600.000000 600.000000"><path d="M0 300v300h600V0H0v300zm304.3-133.5c12.2 3.2 21.1 9.5 27.8 19.8 3.8 5.9 7.6 14.4 6.7 15.2-.2.2-6.7 1.8-14.4 3.5-7.6 1.7-14.7 3.3-15.6 3.6-1.3.4-2.3-.7-3.9-4.1-4.1-8.6-13.6-13.6-23.1-12-11.8 2-18 10-19.8 25.4-1 9.3.2 24.3 2.5 29.9 3.4 8 10.2 12.2 20 12.2 11.3 0 18.7-6 22.1-17.7 1.2-4.2 1.9-5.3 3.2-4.9.9.3 7.8 2.4 15.2 4.6 7.4 2.2 14 4.2 14.7 4.5.9.3.7 1.8-.7 6-8.4 24.4-25 35.5-53 35.4-24.8 0-40.2-7-51.2-23.2-7.8-11.5-11.7-28-10.4-44.4.9-12.1 2.3-17.9 6.6-26.8 7-14.7 20.7-24.6 38.5-28 9.5-1.7 26.1-1.3 34.8 1zm-88.5 12.7l.3 12.8H161v21h47v24h-47v49h-37V166l45.8.2 45.7.3.3 12.7zm176.4 9.4l.3 22.7 19.4-22.7 19.4-22.6h48.9l-5 5.7c-2.8 3.2-8.9 9.6-13.7 14.3-4.8 4.7-12.2 12.4-16.6 17.2l-8 8.7 22.2 36.3c12.2 20 22.4 36.6 22.6 37 .2.5-9.8.8-22.4.8h-22.8L424 261.4l-12.5-24.5-9.7 10.3-9.8 10.3V286h-37v-59.3c0-32.7.3-59.7.7-60 .3-.4 8.6-.7 18.4-.7H392l.2 22.6zM221.7 360.5c12.2 32.4 22.2 59.3 22.3 59.7 0 .5-8.7.8-19.3.8h-19.3l-3-9.8-2.9-9.7h-41.7l-2.8 9.3c-1.5 5.1-3 9.5-3.2 9.8-.3.2-8.9.3-19.1.2l-18.5-.3 19.9-53c11-29.2 21.1-56 22.5-59.8l2.6-6.7 20.1.2 20.1.3 22.3 59zm126.1-46.3l.3 12.8-27.3.2-27.3.3-.3 10.2-.3 10.3H340v24l-23.2.2-23.3.3-.3 24.2-.2 24.3h-37V301l45.8.2 45.7.3.3 12.7zm93.9-10.9c17.6 5 28.7 17.1 34 36.7 2.5 9.3 2.5 36-.1 44.5-4.1 13.9-13.9 26-24.8 31-10.4 4.7-18.1 5.5-51.8 5.5h-31V300.8l34.3.5c26.2.4 35.4.9 39.4 2zm72.4 61.5c5.5 2.7 10.4 7.4 13 12.4 2 3.8 4.4 18.2 3.3 19.9-.3.5-10.2.9-22 .9-20.7 0-21.4.1-21.4 2 0 1.1 1.3 3.4 2.9 5.2 2.5 2.8 3.6 3.3 7.4 3.3 3.2 0 5.5-.7 7.7-2.3 3-2.3 3.7-2.3 13.6-1.7 6.3.5 10.4 1.2 10.4 1.8 0 .6-2.6 3.6-5.8 6.7-7.2 7.1-11.7 8.5-26.8 8.5-10.3 0-11.5-.2-16.9-3-3.2-1.7-7.1-4.6-8.7-6.6l-2.9-3.5 4.4-6.5c5.9-8.9 9.7-21.9 9.7-33.6 0-3.9.3-4.3 3.3-5.2 1.7-.6 8-.9 13.8-.8 8.3.3 11.4.8 15 2.5zm-158.6 44.7v11l-11.7.3-11.8.3v-23.2l11.8.3 11.7.3v11z"/><path d="M172.6 353.1c-3.2 10.5-6 19.8-6.3 20.5-.4 1.1 1.8 1.4 12.1 1.4 8.7 0 12.6-.3 12.6-1.1 0-1.6-11.2-38.2-12-39.2-.3-.4-3.2 7.9-6.4 18.4zM405 361.5V394h6.3c14.9 0 22-2.8 25.8-10.2 3-6 4.5-19.9 3.1-30.7-2.2-18.2-8.8-24.1-26.8-24.1H405v32.5zM493.4 376c-3 1.2-6.4 5.8-6.4 8.6 0 2.4.1 2.4 10.6 2.4h10.6l-.7-2.8c-1.8-7.4-7.7-10.8-14.1-8.2z"/></svg>