<svg
  version="1.1" id="Ebene_1" xmlns="http://www.w3.org/2000/svg" xmlns:xlink="http://www.w3.org/1999/xlink" x="0px" y="0px"
  viewBox="0 0 1024 768" style="enable-background:new 0 0 1024 768;" xml:space="preserve"
>
  <style type="text/css">
    .st0{fill:#FFFFFF;}
    .st1{fill:#FF0000;}
  </style>
  <rect width="1024" height="768"/>
  <g class="st2">
    <path class="st0" d="M218.5,161.2h155.9V205h-92.6v35.6h79.1v41.2h-79.1v83.4h-63.3V161.2z"/>
    <path class="st0" d="M532.8,281.7l55.3,16.7c-3.7,15.5-9.6,28.4-17.5,38.8c-8,10.4-17.9,18.2-29.7,23.5c-11.8,5.3-26.9,7.9-45.2,7.9
      c-22.2,0-40.3-3.2-54.4-9.7c-14.1-6.4-26.2-17.8-36.4-34c-10.2-16.2-15.3-37-15.3-62.3c0-33.8,9-59.7,26.9-77.8
      c18-18.1,43.4-27.2,76.2-27.2c25.7,0,45.9,5.2,60.6,15.6c14.7,10.4,25.6,26.4,32.8,47.9l-55.7,12.4c-1.9-6.2-4-10.8-6.1-13.6
      c-3.5-4.8-7.8-8.5-12.9-11.1c-5.1-2.6-10.8-3.9-17.1-3.9c-14.3,0-25.2,5.7-32.9,17.2c-5.8,8.5-8.6,21.9-8.6,40.2
      c0,22.6,3.4,38.1,10.3,46.5c6.9,8.4,16.5,12.6,29,12.6c12.1,0,21.2-3.4,27.4-10.2C525.6,304.5,530.1,294.6,532.8,281.7z"/>
    <path class="st0" d="M613.3,161.2h63.1v77.1l66.1-77.1h83.9l-74.5,77l77.8,127H752l-43-83.9l-32.6,34.1v49.8h-63.1V161.2z"/>
    <path class="st0" d="M347.5,562.1h-71.6l-9.9,33.7h-64.4l76.7-204.1H347l76.7,204.1h-66L347.5,562.1z M334.4,518l-22.5-73.4
      L289.6,518H334.4z"/>
    <path class="st0" d="M444,391.7H600v43.8h-92.6v35.6h79.1v41.2h-79.1v83.4H444V391.7z"/>
  </g>
  <rect x="193" y="67.5" class="st1" width="646.8" height="64.3"/>
  <rect x="193" y="623.5" class="st1" width="646.8" height="64.3"/>
  <g class="st3">
    <path class="st0" d="M573.5,557.3h40v37.6h-40V557.3z"/>
    <path class="st0" d="M912.1,555.3H837c0.7,6,2.3,10.5,4.9,13.4c3.6,4.2,8.3,6.4,14.2,6.4c3.7,0,7.2-0.9,10.5-2.8
      c2-1.2,4.2-3.2,6.5-6.2l36.9,3.4c-5.6,9.8-12.5,16.9-20.4,21.1c-8,4.3-19.4,6.4-34.3,6.4c-12.9,0-23.1-1.8-30.6-5.5
      c-7.4-3.7-13.6-9.5-18.5-17.4c-4.9-7.9-7.3-17.3-7.3-28c0-15.3,4.9-27.6,14.7-37.1c9.8-9.5,23.3-14.2,40.5-14.2
      c14,0,25,2.1,33.1,6.4c8.1,4.2,14.3,10.4,18.5,18.4c4.2,8,6.4,18.5,6.4,31.4V555.3z M874,537.4c-0.7-7.2-2.7-12.4-5.8-15.6
      c-3.2-3.1-7.3-4.7-12.5-4.7c-6,0-10.7,2.4-14.3,7.1c-2.3,2.9-3.7,7.3-4.3,13.2H874z"/>
    <g>
      <g>
        <path d="M454.5,635.4h7.6v3.4h-3.9v3.8h3.7v3.4h-3.7v4.6h3.9v3.4h-7.6V635.4z"/>
        <path d="M467.6,640.5v13.4h-3.6v-13.4H467.6z M464.2,638.9v-3.5h3.3v3.5H464.2z"/>
        <path d="M469.6,640.5h3.4v1.6h0c0.2-0.5,0.5-1,1-1.4c0.5-0.3,1-0.5,1.7-0.5c0.9,0,1.5,0.3,2.1,0.7c0.5,0.5,0.8,1.3,0.8,2.5v10.5
          H475v-9.6c0-0.9-0.3-1.3-0.9-1.3c-0.3,0-0.6,0.1-0.7,0.3c-0.2,0.2-0.2,0.7-0.2,1.2v9.3h-3.6V640.5z"/>
        <path d="M491.3,644.8V644c0-0.6-0.4-0.9-1-0.9c-0.6,0-0.9,0.3-0.9,0.8c0,0.3,0.1,0.5,0.3,0.7c0.2,0.2,0.4,0.4,0.6,0.6
          c0.3,0.2,0.6,0.3,0.9,0.5c0.3,0.2,0.6,0.3,1,0.5c0.7,0.3,1.3,0.8,1.9,1.3c0.5,0.6,0.8,1.4,0.8,2.4c0.2,3-1.3,4.5-4.4,4.5
          c-3-0.1-4.5-1.4-4.4-3.9v-1h3.4v0.6c0,0.6,0.1,0.9,0.3,1.2c0.2,0.2,0.4,0.3,0.7,0.3c0.6,0,0.9-0.3,0.9-1.1c0-0.7-0.3-1.1-0.8-1.4
          c-0.2-0.2-0.5-0.3-0.8-0.5c-0.3-0.1-0.7-0.3-1-0.4c-0.3-0.2-0.6-0.4-0.9-0.6c-0.3-0.2-0.6-0.5-0.9-0.8c-0.6-0.6-0.8-1.5-0.9-2.8
          c0-2.4,1.5-3.6,4.4-3.7c2.7,0,4.1,1.1,4.1,3.4v1.2H491.3z"/>
        <path d="M499.9,648.1v2.1c0,0.8,0.4,1.2,1,1.2c0.3,0,0.6-0.1,0.8-0.3c0.2-0.2,0.3-0.5,0.3-0.9v-0.7l3.3,0v1.2
          c0,2.4-1.5,3.6-4.5,3.6c-3,0-4.5-1.2-4.5-3.6v-6c0-1.5,0.3-2.7,1-3.4c0.7-0.7,1.8-1.1,3.5-1.1c1.7,0,2.8,0.4,3.5,1.1
          c0.7,0.7,1,1.9,1,3.4v3.5H499.9z M502,645.6v-1.2c0-0.9-0.4-1.3-1-1.3s-1,0.4-1,1.3v1.2H502z"/>
        <path d="M506.9,635.4h3.4v6.7h0c0.2-0.5,0.6-1,1-1.4c0.5-0.3,1-0.5,1.7-0.5c0.9,0,1.5,0.3,2.1,0.8c0.5,0.5,0.8,1.3,0.8,2.5v10.6
          h-3.6v-9.6c0-0.9-0.3-1.3-0.9-1.3c-0.3,0-0.6,0.1-0.7,0.3c-0.2,0.2-0.2,0.7-0.2,1.2v9.3h-3.6V635.4z"/>
        <path d="M518,640.5h3.5v2.7h0.1c0.5-1.1,0.9-1.8,1.4-2.2c0.4-0.4,1-0.6,1.6-0.6v4.5h-0.1c-0.2-0.1-0.5-0.1-0.7-0.1
          c-0.6,0-1.2,0.2-1.6,0.6c-0.4,0.4-0.7,1-0.7,1.9v6.7H518V640.5z"/>
        <path d="M534.9,654.9c0,0.7,0.3,1.1,0.9,1.1c0.6,0,0.9-0.4,0.9-1.1v-2.4h-0.1c-0.2,0.3-0.5,0.7-0.9,1c-0.4,0.3-1,0.5-1.8,0.5
          c-0.7,0-1.4-0.2-1.9-0.7c-0.5-0.5-0.8-1.2-0.8-2.2v-7.9c0-1,0.3-1.8,0.8-2.2c0.5-0.5,1.2-0.7,1.9-0.7c0.9,0,1.5,0.2,2.1,0.7
          c0.5,0.4,0.7,0.8,0.8,1.2h0.1v-1.6h3.4v13.8c0,1.6-0.4,2.7-1.1,3.3c-0.7,0.6-1.9,0.9-3.4,0.9c-1.6,0-2.8-0.3-3.4-0.8
          c-0.7-0.5-1-1.5-1-3H534.9z M534.9,649.9c0,0.8,0.3,1.2,0.8,1.1c0.3,0,0.5-0.1,0.7-0.3c0.2-0.2,0.3-0.5,0.3-0.9v-5.7
          c0-0.4-0.1-0.7-0.3-0.9c-0.2-0.2-0.4-0.3-0.7-0.3c-0.5,0-0.8,0.4-0.8,1.1V649.9z"/>
        <path d="M551.5,653.9H548v-1.6l-0.1,0c-0.2,0.5-0.6,1-1,1.3c-0.5,0.4-1,0.6-1.7,0.6c-0.8,0-1.5-0.3-2-0.8
          c-0.5-0.5-0.8-1.3-0.8-2.4v-10.6h3.6v9.6c0,0.9,0.3,1.3,0.9,1.3c0.4,0,0.6-0.1,0.8-0.3c0.2-0.2,0.2-0.6,0.2-1.2v-9.3h3.6V653.9z"
          />
        <path d="M553.9,637h3.6v3.6h1.9v3h-1.9v5.5c0,0.7,0.1,1.2,0.2,1.4c0.1,0.2,0.4,0.3,0.7,0.3h1v3.3h-3.5c-1.3,0-2-0.8-2-2.3v-8.1
          h-1.1v-3h1.1V637z"/>
        <path d="M564.1,648.1v2.1c0,0.8,0.4,1.2,1,1.2c0.3,0,0.6-0.1,0.8-0.3c0.2-0.2,0.3-0.5,0.3-0.9v-0.7l3.3,0v1.2
          c0,2.4-1.5,3.6-4.5,3.6c-3,0-4.5-1.2-4.5-3.6v-6c0-1.5,0.3-2.7,1-3.4c0.7-0.7,1.8-1.1,3.5-1.1c1.7,0,2.8,0.4,3.5,1.1
          c0.7,0.7,1,1.9,1,3.4v3.5H564.1z M566.2,645.6v-1.2c0-0.9-0.4-1.3-1-1.3c-0.7,0-1,0.4-1,1.3v1.2H566.2z"/>
        <path d="M571.2,640.5h3.5v2.7h0.1c0.5-1.1,0.9-1.8,1.4-2.2c0.4-0.4,1-0.6,1.6-0.6v4.5h-0.1c-0.2-0.1-0.5-0.1-0.7-0.1
          c-0.6,0-1.2,0.2-1.6,0.6c-0.4,0.4-0.7,1-0.7,1.9v6.7h-3.6V640.5z"/>
        <path d="M590,641v-1c0-1-0.4-1.5-1.1-1.5c-0.8,0-1.2,0.5-1.2,1.5c0,0.4,0.1,0.7,0.3,1c0.2,0.3,0.4,0.6,0.7,0.9
          c0.3,0.3,0.6,0.5,1,0.8c0.3,0.3,0.7,0.6,1.1,0.9c0.8,0.6,1.5,1.3,2.1,2.1c0.6,0.9,0.9,2.1,0.9,3.6c0,1.9-0.3,3.2-1,4
          c-0.7,0.7-2,1.1-3.8,1.1c-1.7,0-2.9-0.3-3.7-1c-0.8-0.7-1.1-1.8-1.1-3.5v-1.7h3.7v1.3c0,1,0.4,1.5,1.2,1.5c0.8,0,1.2-0.5,1.1-1.5
          c0-0.5-0.1-0.9-0.2-1.3c-0.2-0.4-0.4-0.7-0.7-1c-0.6-0.6-1.3-1.1-2.1-1.7c-0.8-0.5-1.5-1.2-2-2.1c-0.6-0.8-0.9-2-1-3.5
          c0-1.7,0.3-2.9,1.1-3.6c0.7-0.7,2-1.1,3.8-1.1c3.2-0.1,4.7,1.4,4.7,4.5v1.5H590z"/>
        <path d="M598.5,648.1v2.1c0,0.8,0.4,1.2,1,1.2c0.3,0,0.6-0.1,0.8-0.3c0.2-0.2,0.3-0.5,0.3-0.9v-0.7l3.3,0v1.2
          c0,2.4-1.5,3.6-4.5,3.6c-3,0-4.5-1.2-4.5-3.6v-6c0-1.5,0.3-2.7,1-3.4c0.7-0.7,1.8-1.1,3.5-1.1c1.7,0,2.8,0.4,3.5,1.1
          c0.7,0.7,1,1.9,1,3.4v3.5H598.5z M600.6,645.6v-1.2c0-0.9-0.4-1.3-1-1.3c-0.7,0-1,0.4-1,1.3v1.2H600.6z"/>
        <path d="M605.6,640.5h3.5v2.7h0.1c0.5-1.1,0.9-1.8,1.4-2.2c0.4-0.4,1-0.6,1.6-0.6v4.5h-0.1c-0.2-0.1-0.5-0.1-0.7-0.1
          c-0.6,0-1.2,0.2-1.6,0.6c-0.4,0.4-0.7,1-0.7,1.9v6.7h-3.6V640.5z"/>
        <path d="M616.2,640.5l1.3,10.1h0l1.3-10.1h3.7l-3,13.4h-4.1l-3-13.4H616.2z"/>
        <path d="M627.6,640.5v13.4H624v-13.4H627.6z M624.2,638.9v-3.5h3.3v3.5H624.2z"/>
        <path d="M638.1,648.6v2c0,2.5-1.5,3.7-4.4,3.7c-2.9,0-4.3-1.3-4.3-3.7v-6.7c0-2.4,1.4-3.7,4.3-3.7c2.9,0,4.4,1.2,4.4,3.7v1.8h-3.3
          v-1.5c0-0.7-0.3-1-0.9-1c-0.6,0-0.9,0.4-0.9,1v6.3c0,0.7,0.3,1,0.9,1c0.6,0,0.9-0.3,0.9-1v-1.8L638.1,648.6z"/>
        <path d="M643.2,648.1v2.1c0,0.8,0.4,1.2,1,1.2c0.3,0,0.6-0.1,0.8-0.3c0.2-0.2,0.3-0.5,0.3-0.9v-0.7l3.3,0v1.2
          c0,2.4-1.5,3.6-4.5,3.6c-3,0-4.5-1.2-4.5-3.6v-6c0-1.5,0.3-2.7,1-3.4c0.7-0.7,1.8-1.1,3.5-1.1c1.7,0,2.8,0.4,3.5,1.1
          c0.7,0.7,1,1.9,1,3.4v3.5H643.2z M645.3,645.6v-1.2c0-0.9-0.4-1.3-1-1.3c-0.7,0-1,0.4-1,1.3v1.2H645.3z"/>
        <path d="M658.8,640.5l1.3,10.1h0l1.3-10.1h3.7l-3,13.4h-4.1l-3-13.4H658.8z"/>
        <path d="M666.3,644.2c0-1.4,0.4-2.5,1.3-3.1c0.8-0.6,1.9-0.9,3.2-0.9c1.3,0,2.4,0.3,3.2,0.9c0.8,0.6,1.2,1.7,1.3,3.1v6.1
          c0,1.4-0.4,2.5-1.3,3.1c-0.8,0.6-1.9,0.9-3.2,0.9c-1.3,0-2.4-0.3-3.2-0.9c-0.8-0.6-1.3-1.7-1.3-3.1V644.2z M669.9,650.3
          c0,0.8,0.3,1.2,0.9,1.1c0.6,0,0.9-0.4,0.9-1.1v-6.1c0-0.8-0.3-1.1-0.9-1.1c-0.6,0-0.9,0.4-0.9,1.1V650.3z"/>
        <path d="M676.9,640.5h3.4v1.6h0c0.2-0.5,0.5-1,1-1.4c0.5-0.3,1-0.5,1.7-0.5c0.9,0,1.5,0.3,2.1,0.7c0.5,0.5,0.8,1.3,0.8,2.5v10.5
          h-3.6v-9.6c0-0.9-0.3-1.3-0.9-1.3c-0.3,0-0.6,0.1-0.7,0.3c-0.2,0.2-0.2,0.7-0.2,1.2v9.3h-3.6V640.5z"/>
      </g>
      <a href="https://www.die-partei.de"><rect x="690" y="630" class="st2" width="138" height="29" fill="#FF0000" />
        <g>
          <path class="st0" d="M693.9,635.4h4.6c1.6,0,2.9,0.3,3.7,0.9c0.8,0.6,1.2,1.8,1.2,3.5v9.8c0,1.7-0.4,2.9-1.2,3.5
            c-0.8,0.6-2,0.9-3.7,0.9h-4.6V635.4z M697.6,650.6h0.9c0.4,0,0.7-0.1,0.9-0.4c0.2-0.2,0.3-0.6,0.3-1.2v-8.6c0-0.6-0.1-1.1-0.3-1.3
            c-0.2-0.2-0.5-0.3-0.9-0.3h-0.9V650.6z"/>
          <path class="st0" d="M708.9,640.5v13.4h-3.6v-13.4H708.9z M705.5,638.9v-3.5h3.3v3.5H705.5z"/>
          <path class="st0" d="M714.4,648.1v2.1c0,0.8,0.4,1.2,1,1.2c0.3,0,0.6-0.1,0.8-0.3c0.2-0.2,0.3-0.5,0.3-0.9v-0.7l3.3,0v1.2
            c0,2.4-1.5,3.6-4.5,3.6c-3,0-4.5-1.2-4.5-3.6v-6c0-1.5,0.3-2.7,1-3.4c0.7-0.7,1.8-1.1,3.5-1.1c1.7,0,2.8,0.4,3.5,1.1
            c0.7,0.7,1,1.9,1,3.4v3.5H714.4z M716.5,645.6v-1.2c0-0.9-0.4-1.3-1-1.3c-0.7,0-1,0.4-1,1.3v1.2H716.5z"/>
          <path class="st0" d="M727.7,635.4h10.4c2.3,0,4,0.5,5.1,1.5c1.1,1,1.7,2.7,1.7,5c0,0.9-0.1,1.8-0.3,2.5c-0.2,0.8-0.5,1.4-1,1.9
            c-0.4,0.5-1,1-1.7,1.2s-1.5,0.4-2.4,0.4h-4.8v5.8h-7V635.4z M734.7,644.3h1.3c0.6,0,1-0.3,1.3-0.8s0.4-1.2,0.4-2.1
            c0-0.7-0.2-1.2-0.5-1.6c-0.4-0.4-0.8-0.6-1.4-0.6h-1.1V644.3z"/>
          <path class="st0" d="M749.4,635.4h9.6l4.8,18.6h-7.2l-0.5-2.9h-3.8l-0.5,2.9h-7.2L749.4,635.4z M752.8,647.4h2.8l-1.3-8.7h-0.1
            L752.8,647.4z"/>
          <path class="st0" d="M764.7,635.4h10.9c2,0,3.5,0.4,4.5,1.2c1,0.8,1.5,2.1,1.5,3.9c0,1.2-0.3,2.1-1,2.8c-0.7,0.7-1.6,1.1-2.7,1.2
            v0.1c0.4,0,0.8,0.1,1.2,0.3c0.4,0.1,0.8,0.4,1.2,0.6c0.4,0.3,0.7,0.6,0.9,1c0.2,0.4,0.4,0.9,0.4,1.5v4.2c0,0.5,0.1,0.9,0.3,1.2
            s0.4,0.4,0.7,0.5l0,0.1h-6.9c-0.3,0-0.6-0.1-0.7-0.4c-0.2-0.2-0.3-0.6-0.3-1v-4.1c0-0.8-0.1-1.4-0.4-1.7c-0.3-0.3-0.7-0.5-1.4-0.5
            h-1v7.6h-7V635.4z M771.7,642.7h1.1c0.6,0,1.1-0.2,1.4-0.6c0.3-0.4,0.4-0.9,0.4-1.4c0-0.7-0.2-1.1-0.5-1.4s-0.8-0.4-1.4-0.4h-1
            V642.7z"/>
          <path class="st0" d="M782.4,635.4h15.3v4.4h-4.1v14.1h-7v-14.1h-4.2V635.4z"/>
          <path class="st0" d="M798.8,635.4h14.4v4.4h-7.4v2.8h6.8v4h-6.8v3h7.4v4.4h-14.4V635.4z"/>
          <path class="st0" d="M815.4,635.4h7v18.6h-7V635.4z"/>
        </g>
      </a>
    </g>
  </g>
  <g class="st2">
    <path class="st0" d="M634.8,599.6c-2.1,0-3.8-1.7-3.8-3.8V391.7c0-2.1,1.7-3.8,3.8-3.8h93.7c18.9,0,34.5,2.6,46.3,7.8
      c11.9,5.2,21.9,12.9,29.6,22.7c7.7,9.7,13.4,21.2,16.8,34.1c3.4,12.7,5.1,26.3,5.1,40.5c0,22.2-2.6,39.8-7.7,52.2
      c-5.2,12.5-12.4,23.1-21.6,31.5c-9.2,8.5-19.3,14.3-30,17.1c-14.1,3.8-27,5.7-38.6,5.7H634.8z M713.3,545.6c12.5,0,21.4-1.3,26.4-4
      c4.8-2.5,8.6-7,11.4-13.5c2.9-6.8,4.4-18.2,4.4-33.9c0-20.6-3.2-34.7-9.6-41.9c-6.3-7.1-17.1-10.7-32.2-10.7h-11.9v103.9H713.3z"/>
    <path d="M728.4,391.7c18.5,0,33.4,2.5,44.8,7.5c11.4,5,20.8,12.2,28.2,21.6c7.4,9.4,12.8,20.3,16.1,32.7c3.3,12.4,5,25.6,5,39.5
      c0,21.8-2.5,38.7-7.4,50.7c-5,12-11.9,22.1-20.7,30.2c-8.8,8.1-18.3,13.5-28.4,16.2c-13.8,3.7-26.4,5.6-37.6,5.6h-93.7V391.7H728.4
       M697.8,549.4h15.5c13.2,0,22.6-1.5,28.1-4.4c5.6-2.9,9.9-8,13.1-15.3c3.2-7.3,4.7-19.1,4.7-35.4c0-21.6-3.5-36.4-10.6-44.4
      c-7.1-8-18.7-12-35.1-12h-15.7V549.4 M728.4,384.1h-93.7c-4.2,0-7.6,3.4-7.6,7.6v204.1c0,4.2,3.4,7.6,7.6,7.6h93.7
      c11.8,0,25.2-2,39.5-5.8c11.2-3,21.9-9,31.6-18c9.6-8.8,17.2-19.9,22.5-32.9c5.4-13.1,8-30.6,8-53.6c0-14.5-1.8-28.5-5.3-41.5
      c-3.6-13.4-9.5-25.3-17.5-35.4c-8.2-10.3-18.6-18.3-31.1-23.8C764,386.9,747.9,384.1,728.4,384.1L728.4,384.1z M705.4,445.5h8.2
      c14,0,23.9,3.2,29.4,9.4c4,4.5,8.7,15,8.7,39.4c0,19-2.2,28.1-4.1,32.4c-2.5,5.7-5.6,9.5-9.7,11.6c-3.1,1.6-9.8,3.5-24.6,3.5h-7.9
      V445.5L705.4,445.5z"/>
  </g>
</svg>
